<svg fill="#ccc" viewBox="0 0 50 50" xmlns="http://www.w3.org/2000/svg"><rect fill="#f2f2f2" height="100%" width="100%"/><path d="m39 38h-28c-1.7 0-3-1.3-3-3v-18c0-1.7 1.3-3 3-3h6c.2 0 .5-.2.6-.3l1.1-2.2c.4-.8 1.4-1.4 2.3-1.4h8c.9 0 1.9.6 2.3 1.4l1.1 2.2c.1.2.4.3.6.3h6c1.7 0 3 1.3 3 3v18c0 1.7-1.3 3-3 3zm-28-22c-.6 0-1 .4-1 1v18c0 .6.4 1 1 1h28c.6 0 1-.4 1-1v-18c0-.6-.4-1-1-1h-6c-.9 0-1.9-.6-2.3-1.4l-1.1-2.2c-.1-.2-.4-.4-.6-.4h-8c-.2 0-.5.2-.6.3l-1.1 2.2c-.4.9-1.4 1.5-2.3 1.5z"/><path d="m25 34c-5 0-9-4-9-9s4-9 9-9 9 4 9 9-4 9-9 9zm0-16c-3.9 0-7 3.1-7 7s3.1 7 7 7 7-3.1 7-7-3.1-7-7-7z"/><circle cx="35" cy="18" r="1"/><path d="m12 12h4v1h-4z"/><path d="m25 21v-1c-2.8 0-5 2.2-5 5h1c0-2.2 1.8-4 4-4z"/></svg>